<svg xmlns="http://www.w3.org/2000/svg" xmlns:xlink="http://www.w3.org/1999/xlink" width="500" zoomAndPan="magnify" viewBox="0 0 375 374.999991" height="500" preserveAspectRatio="xMidYMid meet" version="1.0"><defs><g/><clipPath id="f148c85108"><path d="M 21.824219 175 L 95 175 L 95 198 L 21.824219 198 Z M 21.824219 175 " clip-rule="nonzero"/></clipPath><clipPath id="b3779a990b"><path d="M 24 159 L 103.574219 159 L 103.574219 211 L 24 211 Z M 24 159 " clip-rule="nonzero"/></clipPath></defs><g clip-path="url(#f148c85108)"><path fill="#92b2a1" d="M 94.835938 183.996094 C 86.253906 182.277344 77.996094 185.851562 68.78125 189.847656 C 63.609375 192.089844 58.265625 194.40625 52.410156 195.976562 C 42.703125 198.570312 33.332031 197.375 26.707031 192.679688 L 26.660156 192.648438 C 25.976562 192.15625 25.359375 191.59375 24.800781 190.960938 C 24.246094 190.332031 23.765625 189.644531 23.363281 188.902344 C 22.960938 188.164062 22.648438 187.390625 22.417969 186.578125 C 22.191406 185.765625 22.058594 184.941406 22.019531 184.101562 C 21.863281 181.003906 22.25 177.976562 23.171875 175.015625 C 25.214844 179.609375 28.535156 183.0625 33.066406 185.304688 C 42.871094 190.144531 56.585938 188.277344 66.152344 184.917969 C 75.058594 181.785156 86.019531 179.808594 94.835938 183.996094 Z M 94.835938 183.996094 " fill-opacity="1" fill-rule="nonzero"/></g><path fill="#6aad89" d="M 87.128906 179.910156 C 81.402344 179.261719 74.316406 180.078125 65.539062 183.160156 C 56.324219 186.394531 43.171875 188.21875 33.890625 183.632812 C 31.898438 182.660156 30.128906 181.382812 28.582031 179.796875 C 31.859375 177.671875 35.324219 175.921875 38.980469 174.550781 L 38.980469 178.78125 C 37.855469 178.925781 37.113281 179.167969 37.113281 179.445312 C 37.113281 179.886719 38.984375 180.246094 41.292969 180.246094 C 43.601562 180.246094 45.476562 179.886719 45.476562 179.445312 C 45.476562 179.003906 43.601562 178.648438 41.292969 178.648438 C 40.660156 178.648438 40.0625 178.675781 39.527344 178.722656 L 39.527344 174.347656 C 47.066406 171.609375 54.835938 170.503906 62.835938 171.03125 C 67.371094 171.328125 77.789062 173.636719 87.128906 179.910156 Z M 87.128906 179.910156 " fill-opacity="1" fill-rule="nonzero"/><path fill="#d46041" d="M 46.835938 164.164062 C 43.910156 167.277344 42.445312 161.066406 39.523438 164.148438 L 39.511719 164.164062 L 39.511719 160.105469 L 39.523438 160.089844 C 42.445312 157.007812 43.910156 163.214844 46.835938 160.105469 Z M 46.835938 164.164062 " fill-opacity="1" fill-rule="nonzero"/><g clip-path="url(#b3779a990b)"><path fill="#375e57" d="M 103.339844 191.148438 C 92.96875 187.304688 82.441406 194.035156 72.226562 200.554688 C 65.632812 204.773438 59.40625 208.742188 53.566406 209.675781 C 43.785156 211.238281 34.1875 207.417969 27.898438 199.453125 C 26.328125 197.472656 25.054688 195.320312 24.070312 192.992188 C 24.574219 193.410156 25.082031 193.816406 25.625 194.199219 C 30.269531 197.492188 36.152344 199.183594 42.527344 199.183594 C 46.042969 199.167969 49.496094 198.699219 52.886719 197.773438 C 58.878906 196.167969 64.289062 193.824219 69.519531 191.554688 C 79.339844 187.300781 88.023438 183.539062 97.03125 186.519531 C 98.300781 186.945312 99.472656 187.550781 100.546875 188.339844 C 101.625 189.128906 102.554688 190.066406 103.339844 191.148438 Z M 41.289062 180.246094 C 43.597656 180.246094 45.472656 179.886719 45.472656 179.445312 C 45.472656 179.003906 43.597656 178.648438 41.289062 178.648438 C 40.660156 178.648438 40.058594 178.675781 39.523438 178.722656 L 39.523438 164.148438 L 39.511719 164.164062 L 39.511719 160.105469 L 39.523438 160.089844 L 39.523438 159.773438 C 39.523438 159.695312 39.496094 159.632812 39.445312 159.578125 C 39.390625 159.527344 39.328125 159.5 39.25 159.5 C 39.175781 159.5 39.113281 159.527344 39.058594 159.578125 C 39.003906 159.632812 38.980469 159.695312 38.980469 159.773438 L 38.980469 178.78125 C 37.855469 178.925781 37.113281 179.167969 37.113281 179.445312 C 37.113281 179.886719 38.984375 180.246094 41.289062 180.246094 Z M 41.289062 180.246094 " fill-opacity="1" fill-rule="nonzero"/></g><g fill="#375e57" fill-opacity="1"><g transform="translate(118.930192, 193.124987)"><g><path d="M 2.5 0 C 2.710938 0 2.832031 -0.113281 2.832031 -0.332031 L 2.832031 -3.996094 L 7.082031 -3.996094 C 7.300781 -3.996094 7.417969 -4.109375 7.417969 -4.332031 L 7.417969 -5.121094 C 7.417969 -5.339844 7.300781 -5.453125 7.082031 -5.453125 L 2.832031 -5.453125 L 2.832031 -11.015625 L 7.621094 -11.015625 C 7.832031 -11.015625 7.953125 -11.136719 7.953125 -11.347656 L 7.953125 -12.171875 C 7.953125 -12.390625 7.832031 -12.503906 7.621094 -12.503906 L 1.570312 -12.503906 C 1.351562 -12.503906 1.238281 -12.390625 1.238281 -12.171875 L 1.238281 -0.332031 C 1.238281 -0.113281 1.351562 0 1.570312 0 Z M 2.5 0 "/></g></g></g><g fill="#375e57" fill-opacity="1"><g transform="translate(127.327316, 193.124987)"><g><path d="M 6.066406 -12.503906 C 5.910156 -12.871094 5.59375 -12.871094 5.445312 -12.503906 L 0.277344 -0.382812 C 0.179688 -0.15625 0.277344 0 0.527344 0 L 1.554688 0 C 1.742188 0 1.871094 -0.0742188 1.945312 -0.253906 L 2.859375 -2.484375 L 8.652344 -2.484375 L 9.566406 -0.253906 C 9.628906 -0.0742188 9.769531 0 9.949219 0 L 10.980469 0 C 11.234375 0 11.332031 -0.15625 11.234375 -0.382812 Z M 5.753906 -9.566406 L 8.082031 -3.875 L 3.425781 -3.875 Z M 5.753906 -9.566406 "/></g></g></g><g fill="#375e57" fill-opacity="1"><g transform="translate(138.832679, 193.124987)"><g><path d="M 2.5 0 C 2.710938 0 2.832031 -0.113281 2.832031 -0.332031 L 2.832031 -12.171875 C 2.832031 -12.390625 2.710938 -12.503906 2.5 -12.503906 L 1.570312 -12.503906 C 1.351562 -12.503906 1.238281 -12.390625 1.238281 -12.171875 L 1.238281 -0.332031 C 1.238281 -0.113281 1.351562 0 1.570312 0 Z M 2.5 0 "/></g></g></g><g fill="#375e57" fill-opacity="1"><g transform="translate(142.892917, 193.124987)"><g><path d="M 7.59375 -4.371094 C 9.042969 -5.007812 9.769531 -6.300781 9.769531 -8.222656 C 9.769531 -11 8.253906 -12.503906 4.867188 -12.503906 L 1.570312 -12.503906 C 1.351562 -12.503906 1.238281 -12.390625 1.238281 -12.171875 L 1.238281 -0.332031 C 1.238281 -0.113281 1.351562 0 1.570312 0 L 2.484375 0 C 2.703125 0 2.816406 -0.113281 2.816406 -0.332031 L 2.816406 -3.90625 L 4.972656 -3.90625 C 5.347656 -3.90625 5.699219 -3.925781 6.03125 -3.964844 L 7.90625 -0.253906 C 7.984375 -0.0820312 8.109375 0 8.289062 0 L 9.378906 0 C 9.628906 0 9.746094 -0.164062 9.621094 -0.398438 Z M 2.816406 -5.398438 L 2.816406 -11.015625 L 4.769531 -11.015625 C 5.8125 -11.015625 8.214844 -10.988281 8.214844 -8.214844 C 8.214844 -5.421875 5.78125 -5.398438 4.769531 -5.398438 Z M 2.816406 -5.398438 "/></g></g></g><g fill="#375e57" fill-opacity="1"><g transform="translate(153.511374, 193.124987)"><g><path d="M 16.980469 -12.503906 C 16.785156 -12.503906 16.664062 -12.429688 16.597656 -12.253906 L 13.203125 -3.183594 L 9.65625 -12.488281 C 9.621094 -12.601562 9.523438 -12.742188 9.273438 -12.742188 C 8.980469 -12.742188 8.914062 -12.546875 8.890625 -12.488281 L 5.371094 -3.175781 L 1.96875 -12.253906 C 1.90625 -12.429688 1.765625 -12.503906 1.585938 -12.503906 L 0.5625 -12.503906 C 0.308594 -12.503906 0.21875 -12.351562 0.308594 -12.121094 L 5.054688 0 C 5.210938 0.367188 5.542969 0.367188 5.683594 0 L 9.289062 -9.53125 L 12.894531 0 C 13.023438 0.367188 13.359375 0.367188 13.515625 0 L 18.269531 -12.121094 C 18.359375 -12.351562 18.261719 -12.503906 18.015625 -12.503906 Z M 16.980469 -12.503906 "/></g></g></g><g fill="#375e57" fill-opacity="1"><g transform="translate(172.087571, 193.124987)"><g><path d="M 6.066406 -12.503906 C 5.910156 -12.871094 5.59375 -12.871094 5.445312 -12.503906 L 0.277344 -0.382812 C 0.179688 -0.15625 0.277344 0 0.527344 0 L 1.554688 0 C 1.742188 0 1.871094 -0.0742188 1.945312 -0.253906 L 2.859375 -2.484375 L 8.652344 -2.484375 L 9.566406 -0.253906 C 9.628906 -0.0742188 9.769531 0 9.949219 0 L 10.980469 0 C 11.234375 0 11.332031 -0.15625 11.234375 -0.382812 Z M 5.753906 -9.566406 L 8.082031 -3.875 L 3.425781 -3.875 Z M 5.753906 -9.566406 "/></g></g></g><g fill="#375e57" fill-opacity="1"><g transform="translate(183.592934, 193.124987)"><g><path d="M 5.558594 0 C 5.78125 0 5.894531 -0.113281 5.894531 -0.332031 L 5.894531 -5.933594 L 9.972656 -12.105469 C 10.117188 -12.316406 10.019531 -12.503906 9.753906 -12.503906 L 8.589844 -12.503906 C 8.425781 -12.503906 8.269531 -12.429688 8.179688 -12.285156 L 5.097656 -7.480469 L 2.011719 -12.285156 C 1.921875 -12.429688 1.78125 -12.503906 1.613281 -12.503906 L 0.449219 -12.503906 C 0.1875 -12.503906 0.0820312 -12.316406 0.234375 -12.105469 L 4.296875 -5.925781 L 4.296875 -0.332031 C 4.296875 -0.113281 4.414062 0 4.632812 0 Z M 5.558594 0 "/></g></g></g><g fill="#375e57" fill-opacity="1"><g transform="translate(193.796417, 193.124987)"><g/></g></g><g fill="#375e57" fill-opacity="1"><g transform="translate(198.572688, 193.124987)"><g><path d="M 2.5 0 C 2.71875 0 2.832031 -0.113281 2.832031 -0.332031 L 2.832031 -8.847656 L 6.871094 -3.335938 C 7.007812 -3.140625 7.203125 -3.140625 7.34375 -3.335938 L 11.390625 -8.847656 L 11.390625 -0.332031 C 11.390625 -0.113281 11.503906 0 11.722656 0 L 12.632812 0 C 12.855469 0 12.96875 -0.113281 12.96875 -0.332031 L 12.96875 -12.253906 C 12.96875 -12.878906 12.519531 -13.015625 12.15625 -12.503906 L 7.105469 -5.578125 L 2.066406 -12.503906 C 1.691406 -13.015625 1.253906 -12.878906 1.253906 -12.253906 L 1.253906 -0.332031 C 1.253906 -0.113281 1.367188 0 1.585938 0 Z M 2.5 0 "/></g></g></g><g fill="#375e57" fill-opacity="1"><g transform="translate(212.787588, 193.124987)"><g><path d="M 7.621094 0 C 7.832031 0 7.953125 -0.113281 7.953125 -0.332031 L 7.953125 -1.15625 C 7.953125 -1.367188 7.832031 -1.488281 7.621094 -1.488281 L 2.832031 -1.488281 L 2.832031 -3.996094 L 6.96875 -3.996094 C 7.179688 -3.996094 7.300781 -4.109375 7.300781 -4.332031 L 7.300781 -5.121094 C 7.300781 -5.339844 7.179688 -5.453125 6.96875 -5.453125 L 2.832031 -5.453125 L 2.832031 -11.015625 L 7.621094 -11.015625 C 7.832031 -11.015625 7.953125 -11.136719 7.953125 -11.347656 L 7.953125 -12.171875 C 7.953125 -12.390625 7.832031 -12.503906 7.621094 -12.503906 L 1.570312 -12.503906 C 1.351562 -12.503906 1.238281 -12.390625 1.238281 -12.171875 L 1.238281 -0.332031 C 1.238281 -0.113281 1.351562 0 1.570312 0 Z M 7.621094 0 "/></g></g></g><g fill="#375e57" fill-opacity="1"><g transform="translate(221.388132, 193.124987)"><g><path d="M 4.332031 0 C 8.335938 0 10.835938 -2.359375 10.835938 -6.277344 C 10.835938 -10.214844 8.328125 -12.503906 4.332031 -12.503906 L 1.570312 -12.503906 C 1.351562 -12.503906 1.238281 -12.390625 1.238281 -12.171875 L 1.238281 -0.332031 C 1.238281 -0.113281 1.351562 0 1.570312 0 Z M 2.839844 -11.015625 L 4.304688 -11.015625 C 7.359375 -11.015625 9.238281 -9.355469 9.238281 -6.285156 C 9.238281 -3.214844 7.359375 -1.488281 4.304688 -1.488281 L 2.839844 -1.488281 Z M 2.839844 -11.015625 "/></g></g></g><g fill="#375e57" fill-opacity="1"><g transform="translate(232.958588, 193.124987)"><g><path d="M 2.5 0 C 2.710938 0 2.832031 -0.113281 2.832031 -0.332031 L 2.832031 -12.171875 C 2.832031 -12.390625 2.710938 -12.503906 2.5 -12.503906 L 1.570312 -12.503906 C 1.351562 -12.503906 1.238281 -12.390625 1.238281 -12.171875 L 1.238281 -0.332031 C 1.238281 -0.113281 1.351562 0 1.570312 0 Z M 2.5 0 "/></g></g></g><g fill="#375e57" fill-opacity="1"><g transform="translate(237.018826, 193.124987)"><g><path d="M 6.066406 -12.503906 C 5.910156 -12.871094 5.59375 -12.871094 5.445312 -12.503906 L 0.277344 -0.382812 C 0.179688 -0.15625 0.277344 0 0.527344 0 L 1.554688 0 C 1.742188 0 1.871094 -0.0742188 1.945312 -0.253906 L 2.859375 -2.484375 L 8.652344 -2.484375 L 9.566406 -0.253906 C 9.628906 -0.0742188 9.769531 0 9.949219 0 L 10.980469 0 C 11.234375 0 11.332031 -0.15625 11.234375 -0.382812 Z M 5.753906 -9.566406 L 8.082031 -3.875 L 3.425781 -3.875 Z M 5.753906 -9.566406 "/></g></g></g><g fill="#375e57" fill-opacity="1"><g transform="translate(248.524189, 193.124987)"><g/></g></g><g fill="#375e57" fill-opacity="1"><g transform="translate(253.30046, 193.124987)"><g><path d="M 4.738281 0.261719 C 6.8125 0.261719 8.554688 -0.832031 8.554688 -3.011719 C 8.554688 -5.121094 6.734375 -6.082031 5.097656 -6.984375 C 3.710938 -7.742188 2.484375 -8.425781 2.484375 -9.738281 C 2.484375 -10.84375 3.425781 -11.292969 4.527344 -11.292969 C 5.347656 -11.292969 6.285156 -11.046875 7.179688 -10.632812 C 7.382812 -10.535156 7.53125 -10.609375 7.628906 -10.785156 L 7.953125 -11.578125 C 8.042969 -11.761719 7.996094 -11.925781 7.789062 -12.023438 C 6.683594 -12.496094 5.527344 -12.765625 4.535156 -12.765625 C 2.589844 -12.765625 0.878906 -11.804688 0.878906 -9.621094 C 0.878906 -7.59375 2.433594 -6.652344 3.996094 -5.773438 C 5.59375 -4.882812 6.953125 -4.207031 6.953125 -2.921875 C 6.953125 -1.816406 6.058594 -1.179688 4.632812 -1.179688 C 3.816406 -1.179688 2.824219 -1.359375 1.523438 -2.058594 C 1.320312 -2.164062 1.15625 -2.117188 1.058594 -1.929688 L 0.707031 -1.132812 C 0.609375 -0.945312 0.652344 -0.78125 0.855469 -0.675781 C 2.417969 0.0507812 3.566406 0.261719 4.738281 0.261719 Z M 4.738281 0.261719 "/></g></g></g><g fill="#375e57" fill-opacity="1"><g transform="translate(262.494986, 193.124987)"><g><path d="M 7.210938 0.261719 C 10.835938 0.261719 13.726562 -2.417969 13.726562 -6.253906 C 13.726562 -10.078125 10.835938 -12.765625 7.210938 -12.765625 C 3.589844 -12.765625 0.707031 -10.078125 0.707031 -6.253906 C 0.707031 -2.417969 3.589844 0.261719 7.210938 0.261719 Z M 7.210938 -1.277344 C 4.5 -1.277344 2.304688 -3.3125 2.304688 -6.253906 C 2.304688 -9.207031 4.492188 -11.226562 7.210938 -11.226562 C 9.921875 -11.226562 12.121094 -9.207031 12.121094 -6.253906 C 12.121094 -3.296875 9.921875 -1.277344 7.210938 -1.277344 Z M 7.210938 -1.277344 "/></g></g></g><g fill="#375e57" fill-opacity="1"><g transform="translate(276.929578, 193.124987)"><g><path d="M 6.527344 0 C 6.75 0 6.863281 -0.113281 6.863281 -0.332031 L 6.863281 -1.15625 C 6.863281 -1.367188 6.75 -1.488281 6.527344 -1.488281 L 2.832031 -1.488281 L 2.832031 -12.171875 C 2.832031 -12.390625 2.710938 -12.503906 2.5 -12.503906 L 1.570312 -12.503906 C 1.351562 -12.503906 1.238281 -12.390625 1.238281 -12.171875 L 1.238281 -0.332031 C 1.238281 -0.113281 1.351562 0 1.570312 0 Z M 6.527344 0 "/></g></g></g><g fill="#375e57" fill-opacity="1"><g transform="translate(284.000413, 193.124987)"><g><path d="M 5.4375 0.261719 C 7.808594 0.261719 9.738281 -0.984375 9.738281 -3.980469 L 9.738281 -12.171875 C 9.738281 -12.390625 9.621094 -12.503906 9.402344 -12.503906 L 8.457031 -12.503906 C 8.246094 -12.503906 8.125 -12.390625 8.125 -12.171875 L 8.125 -4.128906 C 8.125 -1.96875 7.082031 -1.253906 5.4375 -1.253906 C 3.816406 -1.253906 2.757812 -1.96875 2.757812 -4.128906 L 2.757812 -12.171875 C 2.757812 -12.390625 2.636719 -12.503906 2.425781 -12.503906 L 1.480469 -12.503906 C 1.261719 -12.503906 1.148438 -12.390625 1.148438 -12.171875 L 1.148438 -3.980469 C 1.148438 -0.984375 3.101562 0.261719 5.4375 0.261719 Z M 5.4375 0.261719 "/></g></g></g><g fill="#375e57" fill-opacity="1"><g transform="translate(294.879246, 193.124987)"><g><path d="M 4.632812 0 C 4.851562 0 4.964844 -0.113281 4.964844 -0.332031 L 4.964844 -11.015625 L 7.800781 -11.015625 C 8.019531 -11.015625 8.132812 -11.136719 8.132812 -11.347656 L 8.132812 -12.171875 C 8.132812 -12.390625 8.019531 -12.503906 7.800781 -12.503906 L 0.527344 -12.503906 C 0.308594 -12.503906 0.195312 -12.390625 0.195312 -12.171875 L 0.195312 -11.347656 C 0.195312 -11.136719 0.308594 -11.015625 0.527344 -11.015625 L 3.363281 -11.015625 L 3.363281 -0.332031 C 3.363281 -0.113281 3.484375 0 3.695312 0 Z M 4.632812 0 "/></g></g></g><g fill="#375e57" fill-opacity="1"><g transform="translate(303.211277, 193.124987)"><g><path d="M 2.5 0 C 2.710938 0 2.832031 -0.113281 2.832031 -0.332031 L 2.832031 -12.171875 C 2.832031 -12.390625 2.710938 -12.503906 2.5 -12.503906 L 1.570312 -12.503906 C 1.351562 -12.503906 1.238281 -12.390625 1.238281 -12.171875 L 1.238281 -0.332031 C 1.238281 -0.113281 1.351562 0 1.570312 0 Z M 2.5 0 "/></g></g></g><g fill="#375e57" fill-opacity="1"><g transform="translate(307.271514, 193.124987)"><g><path d="M 7.210938 0.261719 C 10.835938 0.261719 13.726562 -2.417969 13.726562 -6.253906 C 13.726562 -10.078125 10.835938 -12.765625 7.210938 -12.765625 C 3.589844 -12.765625 0.707031 -10.078125 0.707031 -6.253906 C 0.707031 -2.417969 3.589844 0.261719 7.210938 0.261719 Z M 7.210938 -1.277344 C 4.5 -1.277344 2.304688 -3.3125 2.304688 -6.253906 C 2.304688 -9.207031 4.492188 -11.226562 7.210938 -11.226562 C 9.921875 -11.226562 12.121094 -9.207031 12.121094 -6.253906 C 12.121094 -3.296875 9.921875 -1.277344 7.210938 -1.277344 Z M 7.210938 -1.277344 "/></g></g></g><g fill="#375e57" fill-opacity="1"><g transform="translate(321.706118, 193.124987)"><g><path d="M 2.5 0 C 2.710938 0 2.824219 -0.113281 2.824219 -0.332031 L 2.824219 -9.125 L 10.039062 0 C 10.421875 0.472656 10.867188 0.324219 10.867188 -0.285156 L 10.867188 -12.171875 C 10.867188 -12.390625 10.753906 -12.503906 10.535156 -12.503906 L 9.621094 -12.503906 C 9.410156 -12.503906 9.289062 -12.390625 9.289062 -12.171875 L 9.289062 -3.445312 L 2.066406 -12.519531 C 1.683594 -12.992188 1.253906 -12.828125 1.253906 -12.21875 L 1.253906 -0.332031 C 1.253906 -0.113281 1.367188 0 1.585938 0 Z M 2.5 0 "/></g></g></g><g fill="#375e57" fill-opacity="1"><g transform="translate(333.837999, 193.124987)"><g><path d="M 4.738281 0.261719 C 6.8125 0.261719 8.554688 -0.832031 8.554688 -3.011719 C 8.554688 -5.121094 6.734375 -6.082031 5.097656 -6.984375 C 3.710938 -7.742188 2.484375 -8.425781 2.484375 -9.738281 C 2.484375 -10.84375 3.425781 -11.292969 4.527344 -11.292969 C 5.347656 -11.292969 6.285156 -11.046875 7.179688 -10.632812 C 7.382812 -10.535156 7.53125 -10.609375 7.628906 -10.785156 L 7.953125 -11.578125 C 8.042969 -11.761719 7.996094 -11.925781 7.789062 -12.023438 C 6.683594 -12.496094 5.527344 -12.765625 4.535156 -12.765625 C 2.589844 -12.765625 0.878906 -11.804688 0.878906 -9.621094 C 0.878906 -7.59375 2.433594 -6.652344 3.996094 -5.773438 C 5.59375 -4.882812 6.953125 -4.207031 6.953125 -2.921875 C 6.953125 -1.816406 6.058594 -1.179688 4.632812 -1.179688 C 3.816406 -1.179688 2.824219 -1.359375 1.523438 -2.058594 C 1.320312 -2.164062 1.15625 -2.117188 1.058594 -1.929688 L 0.707031 -1.132812 C 0.609375 -0.945312 0.652344 -0.78125 0.855469 -0.675781 C 2.417969 0.0507812 3.566406 0.261719 4.738281 0.261719 Z M 4.738281 0.261719 "/></g></g></g></svg>